<?xml version="1.0" encoding="UTF-8"?>
<!-- Generator: visioncortex VTracer 0.6.12 -->
<svg version="1.1" xmlns="http://www.w3.org/2000/svg" width="240" height="240">
<path d="M0 0 C13.2 0 26.4 0 40 0 C40 33 40 66 40 100 C73 100 106 100 140 100 C140 113.2 140 126.4 140 140 C107 140 74 140 40 140 C40 173 40 206 40 240 C26.8 240 13.6 240 0 240 C0 207 0 174 0 140 C-33 140 -66 140 -100 140 C-100 126.8 -100 113.6 -100 100 C-67 100 -34 100 0 100 C0 67 0 34 0 0 Z " fill="#FEFEFE" transform="translate(100,0)"/>
</svg>
