<?xml version="1.0" encoding="UTF-8"?>
<!-- Generator: visioncortex VTracer 0.6.12 -->
<svg version="1.1" xmlns="http://www.w3.org/2000/svg" width="240" height="240">
<path d="M0 0 C2.846 1.294 4.902 2.653 7.105 4.864 C7.692 5.449 8.279 6.033 8.884 6.636 C9.517 7.275 10.149 7.915 10.801 8.573 C11.138 8.911 11.138 8.911 12.847 10.619 C15.078 12.852 17.303 15.092 19.527 17.332 C21.079 18.887 22.63 20.442 24.183 21.996 C28.27 26.091 32.352 30.193 36.433 34.295 C40.576 38.459 44.725 42.617 48.873 46.775 C55.579 53.499 62.282 60.226 68.98 66.958 C70.133 68.117 71.287 69.275 72.441 70.434 C73.892 71.891 75.336 73.354 76.781 74.818 C79 77 79 77 81.438 78.875 C84.159 81.132 86.269 83.562 88.527 86.266 C91.241 89.462 94.115 92.319 97.438 94.875 C100.159 97.132 102.269 99.562 104.527 102.266 C107.241 105.462 110.115 108.319 113.438 110.875 C116.159 113.132 118.269 115.562 120.527 118.266 C123.241 121.462 126.115 124.319 129.438 126.875 C132.159 129.132 134.269 131.562 136.527 134.266 C139.261 137.485 142.163 140.351 145.5 142.938 C148.423 145.349 150.606 148.067 153 151 C156.142 154.299 159.394 157.218 163 160 C162.138 164.568 159.447 166.934 156.215 170.078 C155.639 170.65 155.063 171.221 154.47 171.81 C152.633 173.63 150.785 175.44 148.938 177.25 C147.689 178.484 146.441 179.718 145.193 180.953 C142.137 183.977 139.071 186.991 136 190 C133.225 188.731 131.178 187.428 129.025 185.271 C128.463 184.713 127.901 184.155 127.322 183.58 C126.715 182.967 126.108 182.355 125.483 181.723 C124.83 181.072 124.177 180.421 123.505 179.751 C121.315 177.564 119.133 175.371 116.95 173.177 C115.384 171.61 113.816 170.043 112.249 168.477 C107.991 164.219 103.739 159.955 99.488 155.69 C95.046 151.236 90.598 146.787 86.151 142.338 C78.686 134.867 71.225 127.393 63.766 119.917 C56.084 112.216 48.4 104.518 40.712 96.822 C40.239 96.348 39.765 95.873 39.276 95.385 C36.899 93.005 34.522 90.625 32.144 88.245 C12.423 68.503 -7.291 48.754 -27 29 C-25.143 24.969 -22.473 22.217 -19.336 19.141 C-18.784 18.591 -18.232 18.042 -17.663 17.476 C-15.905 15.729 -14.14 13.99 -12.375 12.25 C-11.179 11.064 -9.984 9.878 -8.789 8.691 C-5.865 5.789 -2.934 2.893 0 0 Z M-2.82 17.625 C-3.927 18.745 -5.028 19.87 -6.125 21 C-6.407 21.286 -6.407 21.286 -7.832 22.734 C-9.226 24.152 -10.614 25.575 -12 27 C-10.654 29.999 -9.165 32.081 -6.835 34.392 C-6.195 35.032 -5.554 35.672 -4.895 36.332 C-4.205 37.011 -3.515 37.691 -2.805 38.391 C-2.451 38.743 -2.451 38.743 -0.661 40.526 C1.596 42.772 3.861 45.011 6.125 47.25 C7.658 48.773 9.191 50.296 10.723 51.82 C14.477 55.552 18.236 59.278 22 63 C23.121 62.045 24.242 61.089 25.362 60.132 C25.674 59.866 25.674 59.866 27.252 58.519 C29.232 56.798 31.102 54.998 32.938 53.125 C33.958 52.083 34.979 51.042 36 50 C31.981 45.188 27.788 40.628 23.359 36.191 C22.751 35.58 22.143 34.968 21.516 34.338 C20.244 33.06 18.97 31.784 17.694 30.509 C15.736 28.549 13.786 26.58 11.836 24.611 C10.594 23.367 9.352 22.123 8.109 20.879 C7.526 20.288 6.943 19.698 6.342 19.089 C1.151 13.928 1.151 13.928 -2.82 17.625 Z " fill="#F8F8F8" transform="translate(37,50)"/>
<path d="M0 0 C1.367 1.299 2.717 2.618 4 4 C-0.08 2.682 -4.033 1.187 -8 -0.438 C-39.19 -12.522 -75.095 -8.373 -105.344 4.379 C-122.075 11.797 -135.549 21.728 -148 35 C-152.875 32.375 -152.875 32.375 -154 29 C-154.66 29 -155.32 29 -156 29 C-159.346 25.918 -162.224 22.599 -165 19 C-158.38 3.894 -139.101 -4.357 -125 -11 C-140.24 -8.5 -153.345 -2.85 -166 6 C-166.735 6.512 -167.47 7.024 -168.227 7.551 C-169.829 8.684 -171.417 9.839 -173 11 C-173.33 10.34 -173.66 9.68 -174 9 C-174.99 8.67 -175.98 8.34 -177 8 C-178.75 6.688 -178.75 6.688 -180 5 C-179.926 3.16 -179.926 3.16 -179 1 C-130.967 -40.96 -49.063 -36.657 0 0 Z " fill="#F1F1F1" transform="translate(236,36)"/>
<path d="M0 0 C0.66 0 1.32 0 2 0 C2.401 0.906 2.802 1.812 3.215 2.746 C9.679 16.831 17.999 23.806 32 30 C30.532 32.935 28.394 33.337 25.438 34.688 C14.571 40.044 6.96 47.729 2.805 59.34 C2.539 60.218 2.274 61.096 2 62 C-0.586 59.703 -1.803 57.525 -3.188 54.375 C-9.087 42.384 -18.32 36.756 -30 31 C-27.643 28.643 -25.477 27.8 -22.438 26.438 C-10.482 20.474 -5.207 11.769 0 0 Z " fill="#F0F0F0" transform="translate(30,128)"/>
<path d="M0 0 C1.121 1.681 2.23 3.37 3.297 5.086 C8.081 12.622 13.169 16.771 21 21 C18.277 23.099 15.487 24.946 12.562 26.75 C6.682 30.648 3.236 35.292 1 42 C0.34 42 -0.32 42 -1 42 C-1.268 41.359 -1.536 40.719 -1.812 40.059 C-5.395 32.151 -9.923 26.594 -18 23.062 C-18.99 22.712 -19.98 22.361 -21 22 C-19.741 19.482 -18.785 19.307 -16.25 18.188 C-8.477 14.44 -3.575 7.687 0 0 Z " fill="#EAEAEA" transform="translate(123,64)"/>
<path d="M0 0 C0.66 0 1.32 0 2 0 C2.516 1.196 3.031 2.393 3.562 3.625 C6.713 9.937 11.89 13.667 18 17 C14.257 19.845 14.257 19.845 12.352 20.996 C7.051 24.341 4.65 28.394 2 34 C1.34 34 0.68 34 0 34 C-0.885 32.487 -1.707 30.938 -2.5 29.375 C-5.844 23.52 -10.037 20.899 -16 18 C-14.099 16.004 -12.497 14.683 -10.125 13.188 C-5.183 9.728 -1.891 5.844 0 0 Z " fill="#E6E6E6" transform="translate(19,0)"/>
<path d="M0 0 C2.97 1.98 5.94 3.96 9 6 C8.67 6.165 8.67 6.165 7 7 C4.836 6.223 4.836 6.223 2.375 5.062 C1.558 4.682 0.74 4.302 -0.102 3.91 C-0.728 3.61 -1.355 3.309 -2 3 C-1.34 2.67 -0.68 2.34 0 2 C0 1.34 0 0.68 0 0 Z " fill="#808080" transform="translate(231,33)"/>
</svg>
