<?xml version="1.0" encoding="UTF-8"?>
<!-- Generator: visioncortex VTracer 0.6.12 -->
<svg version="1.1" xmlns="http://www.w3.org/2000/svg" width="240" height="240">
<path d="M0 0 C5.683 2.998 9.752 8.014 13.844 12.841 C15.849 15.045 17.974 16.964 20.227 18.911 C23.815 22.015 26.861 25.292 29.915 28.911 C31.892 31.093 34 32.985 36.227 34.911 C39.815 38.015 42.861 41.292 45.915 44.911 C47.892 47.093 50 48.985 52.227 50.911 C55.814 54.013 58.859 57.289 61.911 60.907 C64.575 63.846 67.574 66.355 70.571 68.946 C73.604 71.71 76.141 74.729 78.727 77.911 C81.415 77.832 83.176 77.459 85.114 75.532 C86.107 74.316 87.09 73.093 88.067 71.864 C89.778 69.852 91.579 68.231 93.602 66.536 C96.582 64.01 99.172 61.367 101.727 58.411 C104.83 54.823 108.108 51.777 111.727 48.724 C113.909 46.746 115.801 44.638 117.727 42.411 C120.83 38.823 124.108 35.777 127.727 32.724 C129.909 30.746 131.801 28.638 133.727 26.411 C136.829 22.824 140.105 19.779 143.723 16.728 C145.927 14.73 147.842 12.596 149.79 10.349 C157.23 1.826 157.23 1.826 160.727 -0.089 C165.256 0.597 167.718 3.435 170.84 6.556 C171.414 7.122 171.988 7.688 172.579 8.271 C173.787 9.469 174.992 10.67 176.192 11.875 C178.037 13.721 179.901 15.544 181.768 17.366 C182.939 18.532 184.109 19.7 185.278 20.868 C185.839 21.413 186.4 21.958 186.979 22.519 C188.517 24.086 188.517 24.086 190.727 26.911 C190.534 31.614 186.884 34.724 183.727 37.911 C182.306 39.047 180.867 40.161 179.415 41.258 C172.152 47.01 165.707 53.583 159.153 60.114 C157.775 61.483 156.397 62.852 155.018 64.221 C152.151 67.072 149.289 69.927 146.428 72.784 C142.757 76.45 139.07 80.1 135.378 83.746 C132.536 86.558 129.706 89.381 126.878 92.208 C125.522 93.56 124.162 94.907 122.798 96.251 C120.902 98.12 119.022 100.004 117.146 101.893 C116.579 102.445 116.011 102.998 115.426 103.568 C113.893 105.13 113.893 105.13 111.727 107.911 C111.804 110.763 112.349 111.524 114.329 113.552 C114.996 114.083 115.664 114.614 116.352 115.161 C119.235 117.563 121.753 119.974 124.165 122.849 C126.669 125.809 129.293 128.375 132.227 130.911 C135.815 134.015 138.861 137.292 141.915 140.911 C143.892 143.093 146 144.985 148.227 146.911 C151.815 150.015 154.861 153.292 157.915 156.911 C159.892 159.093 162 160.985 164.227 162.911 C167.814 166.013 170.859 169.289 173.911 172.907 C175.908 175.111 178.042 177.026 180.29 178.974 C188.812 186.415 188.812 186.415 190.727 189.911 C190.041 194.44 187.203 196.902 184.083 200.024 C183.516 200.598 182.95 201.172 182.367 201.763 C181.169 202.971 179.968 204.176 178.763 205.376 C176.918 207.221 175.095 209.085 173.272 210.952 C172.106 212.123 170.939 213.293 169.77 214.462 C169.225 215.023 168.68 215.585 168.119 216.163 C166.552 217.701 166.552 217.701 163.727 219.911 C159.024 219.718 155.914 216.068 152.727 212.911 C151.591 211.49 150.477 210.051 149.38 208.599 C143.628 201.336 137.055 194.891 130.524 188.337 C129.155 186.959 127.786 185.581 126.417 184.202 C123.566 181.335 120.711 178.473 117.854 175.613 C114.188 171.941 110.538 168.254 106.892 164.562 C104.08 161.72 101.257 158.89 98.43 156.062 C97.079 154.706 95.731 153.346 94.388 151.982 C92.518 150.086 90.634 148.207 88.746 146.33 C88.193 145.763 87.64 145.195 87.07 144.61 C85.508 143.077 85.508 143.077 82.727 140.911 C79.875 140.988 79.114 141.533 77.086 143.513 C76.555 144.18 76.024 144.848 75.477 145.536 C73.075 148.419 70.664 150.937 67.79 153.349 C64.829 155.853 62.264 158.478 59.727 161.411 C56.624 164.999 53.346 168.045 49.727 171.099 C47.545 173.076 45.653 175.185 43.727 177.411 C40.624 180.999 37.346 184.045 33.727 187.099 C31.545 189.076 29.653 191.185 27.727 193.411 C24.625 196.998 21.349 200.043 17.731 203.095 C15.527 205.092 13.612 207.226 11.665 209.474 C4.224 217.996 4.224 217.996 0.727 219.911 C-3.802 219.225 -6.264 216.387 -9.386 213.267 C-9.96 212.7 -10.534 212.134 -11.125 211.551 C-12.333 210.353 -13.537 209.152 -14.738 207.947 C-16.582 206.102 -18.447 204.279 -20.314 202.456 C-21.485 201.29 -22.655 200.123 -23.824 198.954 C-24.385 198.409 -24.946 197.864 -25.525 197.303 C-27.063 195.736 -27.063 195.736 -29.273 192.911 C-29.09 188.24 -25.385 185.104 -22.273 181.911 C-20.324 180.171 -18.336 178.484 -16.343 176.794 C-14.139 174.79 -12.221 172.664 -10.273 170.411 C-7.17 166.823 -3.892 163.777 -0.273 160.724 C1.909 158.746 3.801 156.638 5.727 154.411 C8.83 150.823 12.108 147.777 15.727 144.724 C17.909 142.746 19.801 140.638 21.727 138.411 C24.829 134.824 28.105 131.779 31.723 128.728 C34.662 126.063 37.171 123.064 39.762 120.067 C42.526 117.034 45.545 114.497 48.727 111.911 C48.648 109.223 48.275 107.462 46.348 105.524 C45.132 104.532 43.909 103.548 42.68 102.571 C40.668 100.861 39.047 99.059 37.352 97.036 C34.825 94.056 32.183 91.466 29.227 88.911 C25.639 85.808 22.593 82.53 19.54 78.911 C17.562 76.729 15.454 74.837 13.227 72.911 C9.639 69.808 6.593 66.53 3.54 62.911 C1.562 60.729 -0.546 58.837 -2.773 56.911 C-6.36 53.809 -9.405 50.533 -12.457 46.915 C-14.454 44.711 -16.588 42.796 -18.835 40.849 C-27.358 33.408 -27.358 33.408 -29.273 29.911 C-28.587 25.382 -25.749 22.92 -22.628 19.798 C-22.062 19.224 -21.496 18.65 -20.913 18.059 C-19.715 16.851 -18.514 15.647 -17.309 14.446 C-15.463 12.602 -13.64 10.737 -11.818 8.87 C-10.652 7.699 -9.485 6.529 -8.316 5.36 C-7.771 4.799 -7.226 4.238 -6.665 3.659 C-2.826 -0.11 -2.826 -0.11 0 0 Z " fill="#C00101" transform="translate(39.27294921875,10.0888671875)"/>
<path d="M0 0 C0 4.84 -2.421 7.371 -5.629 10.859 C-6.602 11.828 -7.58 12.792 -8.562 13.75 C-9.057 14.244 -9.551 14.737 -10.061 15.246 C-13.718 18.859 -13.718 18.859 -16 20 C-16.33 20.99 -16.66 21.98 -17 23 C-18.707 24.316 -18.707 24.316 -20.812 25.562 C-21.5 25.976 -22.187 26.39 -22.895 26.816 C-24.902 27.945 -26.931 28.991 -29 30 C-28.107 28.935 -27.21 27.873 -26.312 26.812 C-25.814 26.221 -25.315 25.629 -24.801 25.02 C-22.625 22.58 -20.325 20.297 -18 18 C-17.103 17.103 -16.206 16.206 -15.281 15.281 C-10.188 10.188 -5.094 5.094 0 0 Z " fill="#A3090C" transform="translate(86,124)"/>
<path d="M0 0 C4.75 1.875 4.75 1.875 7 3 C7 3.66 7 4.32 7 5 C7.928 5.103 8.856 5.206 9.812 5.312 C13.033 6.007 14.026 6.477 16 9 C15.67 9.495 15.67 9.495 14 12 C14.66 12 15.32 12 16 12 C15.67 13.32 15.34 14.64 15 16 C12.496 13.525 9.997 11.044 7.5 8.562 C6.785 7.855 6.069 7.148 5.332 6.42 C4.655 5.746 3.979 5.073 3.281 4.379 C2.653 3.756 2.024 3.133 1.377 2.49 C0 1 0 1 0 0 Z " fill="#AC0709" transform="translate(159,187)"/>
<path d="M0 0 C4.75 1.875 4.75 1.875 7 3 C7 3.66 7 4.32 7 5 C7.928 5.103 8.856 5.206 9.812 5.312 C13.033 6.007 14.026 6.477 16 9 C15.67 9.495 15.67 9.495 14 12 C14.66 12 15.32 12 16 12 C15.67 13.32 15.34 14.64 15 16 C12.496 13.525 9.997 11.044 7.5 8.562 C6.785 7.855 6.069 7.148 5.332 6.42 C4.655 5.746 3.979 5.073 3.281 4.379 C2.653 3.756 2.024 3.133 1.377 2.49 C0 1 0 1 0 0 Z " fill="#AC0709" transform="translate(143,171)"/>
<path d="M0 0 C4.75 1.875 4.75 1.875 7 3 C7 3.66 7 4.32 7 5 C7.928 5.103 8.856 5.206 9.812 5.312 C13.033 6.007 14.026 6.477 16 9 C15.67 9.495 15.67 9.495 14 12 C14.66 12 15.32 12 16 12 C15.67 13.32 15.34 14.64 15 16 C12.496 13.525 9.997 11.044 7.5 8.562 C6.785 7.855 6.069 7.148 5.332 6.42 C4.655 5.746 3.979 5.073 3.281 4.379 C2.653 3.756 2.024 3.133 1.377 2.49 C0 1 0 1 0 0 Z " fill="#AC0709" transform="translate(127,155)"/>
<path d="M0 0 C0.443 0.134 0.443 0.134 2.688 0.812 C-0.991 5.339 -4.723 9.207 -9.312 12.812 C-9.071 8.059 -8.924 5.668 -6.125 1.75 C-3.312 -0.188 -3.312 -0.188 0 0 Z " fill="#B20506" transform="translate(218.3125,210.1875)"/>
<path d="M0 0 C0.99 0.33 1.98 0.66 3 1 C3 1.66 3 2.32 3 3 C4.65 3.33 6.3 3.66 8 4 C8 4.66 8 5.32 8 6 C8.66 6 9.32 6 10 6 C10.103 6.639 10.206 7.279 10.312 7.938 C10.539 8.618 10.766 9.299 11 10 C11.99 10.33 12.98 10.66 14 11 C14 10.34 14 9.68 14 9 C15.32 9.66 16.64 10.32 18 11 C16.75 12.562 16.75 12.562 15 14 C9.212 13.271 5.245 8.405 1.562 4.25 C0 2 0 2 0 0 Z " fill="#A00B0E" transform="translate(188,216)"/>
<path d="M0 0 C0 0.66 0 1.32 0 2 C0.66 2 1.32 2 2 2 C2 2.66 2 3.32 2 4 C2.66 4 3.32 4 4 4 C3.67 6.31 3.34 8.62 3 11 C-4.483 4.85 -4.483 4.85 -7 1 C-4 0 -4 0 0 0 Z " fill="#B30506" transform="translate(26,210)"/>
<path d="M0 0 C0 3.924 -0.877 5.683 -3 9 C-5.536 10.921 -8.199 12.497 -11 14 C-10.835 14.598 -10.67 15.196 -10.5 15.812 C-10 18 -10 18 -10 21 C-12.062 19.25 -12.062 19.25 -14 17 C-13.187 9.696 -5.327 4.302 0 0 Z " fill="#910F14" transform="translate(24,186)"/>
<path d="M0 0 C0.99 0.66 1.98 1.32 3 2 C2.404 5.262 1.356 7.132 -0.812 9.625 C-1.314 10.215 -1.815 10.806 -2.332 11.414 C-4.105 13.1 -5.77 14.023 -8 15 C-8 13.35 -8 11.7 -8 10 C-7.34 10 -6.68 10 -6 10 C-6 9.34 -6 8.68 -6 8 C-5.01 8 -4.02 8 -3 8 C-2.876 7.422 -2.752 6.845 -2.625 6.25 C-1.994 3.977 -1.111 2.075 0 0 Z " fill="#A20B0E" transform="translate(227,35)"/>
<path d="M0 0 C1.65 0 3.3 0 5 0 C0.592 5.29 -4.076 10.188 -9 15 C-10.125 11.25 -10.125 11.25 -9 9 C-6.938 8.375 -6.938 8.375 -5 8 C-4.67 6.68 -4.34 5.36 -4 4 C-2.68 4 -1.36 4 0 4 C0 2.68 0 1.36 0 0 Z " fill="#A6090B" transform="translate(176,87)"/>
<path d="M0 0 C1.65 0 3.3 0 5 0 C0.592 5.29 -4.076 10.188 -9 15 C-10.125 11.25 -10.125 11.25 -9 9 C-6.938 8.375 -6.938 8.375 -5 8 C-4.67 6.68 -4.34 5.36 -4 4 C-2.68 4 -1.36 4 0 4 C0 2.68 0 1.36 0 0 Z " fill="#A6090B" transform="translate(192,71)"/>
<path d="M0 0 C0 3.924 -0.877 5.683 -3 9 C-6.695 11.871 -10.815 13.94 -15 16 C-11.492 11.817 -7.916 7.813 -4 4 C-3.237 3.237 -2.474 2.474 -1.688 1.688 C-1.131 1.131 -0.574 0.574 0 0 Z " fill="#9C0A0E" transform="translate(40,170)"/>
<path d="M0 0 C0 3.924 -0.877 5.683 -3 9 C-6.695 11.871 -10.815 13.94 -15 16 C-11.492 11.817 -7.916 7.813 -4 4 C-3.237 3.237 -2.474 2.474 -1.688 1.688 C-1.131 1.131 -0.574 0.574 0 0 Z " fill="#9C0A0E" transform="translate(56,154)"/>
<path d="M0 0 C0 3.924 -0.877 5.683 -3 9 C-6.695 11.871 -10.815 13.94 -15 16 C-11.492 11.817 -7.916 7.813 -4 4 C-3.237 3.237 -2.474 2.474 -1.688 1.688 C-1.131 1.131 -0.574 0.574 0 0 Z " fill="#9C0A0E" transform="translate(152,58)"/>
<path d="M0 0 C0 3.924 -0.877 5.683 -3 9 C-6.695 11.871 -10.815 13.94 -15 16 C-11.492 11.817 -7.916 7.813 -4 4 C-3.237 3.237 -2.474 2.474 -1.688 1.688 C-1.131 1.131 -0.574 0.574 0 0 Z " fill="#9C0A0E" transform="translate(168,42)"/>
<path d="M0 0 C0 3.924 -0.877 5.683 -3 9 C-6.695 11.871 -10.815 13.94 -15 16 C-11.492 11.817 -7.916 7.813 -4 4 C-3.237 3.237 -2.474 2.474 -1.688 1.688 C-1.131 1.131 -0.574 0.574 0 0 Z " fill="#9C0A0E" transform="translate(184,26)"/>
<path d="M0 0 C0 3.883 -0.923 5.716 -3 9 C-5.279 10.772 -7.332 11.787 -10 13 C-10.66 12.67 -11.32 12.34 -12 12 C-8.394 7.411 -4.526 3.678 0 0 Z " fill="#9C0B0D" transform="translate(136,74)"/>
<path d="M0 0 C1.734 0.934 1.734 0.934 2.734 2.934 C1.084 2.934 -0.566 2.934 -2.266 2.934 C-2.596 3.924 -2.926 4.914 -3.266 5.934 C-6.141 8.684 -6.141 8.684 -9.266 10.934 C-10.256 10.604 -11.246 10.274 -12.266 9.934 C-10.698 8.231 -9.111 6.547 -7.516 4.871 C-6.634 3.931 -5.752 2.992 -4.844 2.023 C-2.266 -0.066 -2.266 -0.066 0 0 Z " fill="#A20C12" transform="translate(39.265625,10.06640625)"/>
<path d="M0 0 C5.117 3.502 8.906 6.586 12 12 C8.688 11.375 8.688 11.375 5 10 C3.188 7.125 3.188 7.125 2 4 C1.345 2.661 0.68 1.326 0 0 Z " fill="#9D0A0D" transform="translate(151,122)"/>
<path d="M0 0 C1.65 0 3.3 0 5 0 C1.619 4.136 -1.666 7.813 -6 11 C-6 9.35 -6 7.7 -6 6 C-5.196 5.752 -4.391 5.505 -3.562 5.25 C-1 4 -1 4 -0.188 1.875 C-0.126 1.256 -0.064 0.638 0 0 Z " fill="#A50A0C" transform="translate(204,59)"/>
<path d="M0 0 C1.65 0 3.3 0 5 0 C-1.15 7.483 -1.15 7.483 -5 10 C-4.67 8.02 -4.34 6.04 -4 4 C-2.68 4 -1.36 4 0 4 C0 2.68 0 1.36 0 0 Z " fill="#A40A0C" transform="translate(160,103)"/>
<path d="M0 0 C3.278 0.311 4.681 0.673 7.02 3.066 C7.611 3.89 8.203 4.714 8.812 5.562 C9.417 6.389 10.022 7.215 10.645 8.066 C11.092 8.704 11.539 9.343 12 10 C11.67 10.66 11.34 11.32 11 12 C2.369 4.886 2.369 4.886 0 0 Z " fill="#980C0E" transform="translate(61,90)"/>
<path d="M0 0 C3.278 0.311 4.681 0.673 7.02 3.066 C7.611 3.89 8.203 4.714 8.812 5.562 C9.417 6.389 10.022 7.215 10.645 8.066 C11.092 8.704 11.539 9.343 12 10 C11.67 10.66 11.34 11.32 11 12 C2.369 4.886 2.369 4.886 0 0 Z " fill="#980C0E" transform="translate(45,74)"/>
<path d="M0 0 C3.278 0.311 4.681 0.673 7.02 3.066 C7.611 3.89 8.203 4.714 8.812 5.562 C9.417 6.389 10.022 7.215 10.645 8.066 C11.092 8.704 11.539 9.343 12 10 C11.67 10.66 11.34 11.32 11 12 C2.369 4.886 2.369 4.886 0 0 Z " fill="#980C0E" transform="translate(29,58)"/>
<path d="M0 0 C4.223 2.534 6.783 4.566 9 9 C6.352 8.642 4.445 8.318 2.25 6.75 C0.682 4.555 0.358 2.648 0 0 Z " fill="#9D0B0D" transform="translate(90,61)"/>
<path d="M0 0 C4.223 2.534 6.783 4.566 9 9 C6.352 8.642 4.445 8.318 2.25 6.75 C0.682 4.555 0.358 2.648 0 0 Z " fill="#9D0B0D" transform="translate(74,45)"/>
<path d="M0 0 C4.223 2.534 6.783 4.566 9 9 C6.352 8.642 4.445 8.318 2.25 6.75 C0.682 4.555 0.358 2.648 0 0 Z " fill="#9D0B0D" transform="translate(58,29)"/>
<path d="M0 0 C4.223 2.534 6.783 4.566 9 9 C6.352 8.642 4.445 8.318 2.25 6.75 C0.682 4.555 0.358 2.648 0 0 Z " fill="#9B0B0D" transform="translate(42,13)"/>
<path d="M0 0 C4.223 2.534 6.783 4.566 9 9 C5.625 8.438 5.625 8.438 2 7 C0.562 3.375 0.562 3.375 0 0 Z " fill="#9A0B0E" transform="translate(218,189)"/>
<path d="M0 0 C4.223 2.534 6.783 4.566 9 9 C5.625 8.438 5.625 8.438 2 7 C0.562 3.375 0.562 3.375 0 0 Z " fill="#9C0B0D" transform="translate(202,173)"/>
<path d="M0 0 C4.223 2.534 6.783 4.566 9 9 C5.625 8.438 5.625 8.438 2 7 C0.562 3.375 0.562 3.375 0 0 Z " fill="#9C0B0D" transform="translate(186,157)"/>
<path d="M0 0 C-2.578 2.648 -4.916 4.944 -8 7 C-8 5.02 -8 3.04 -8 1 C-3.375 -1.125 -3.375 -1.125 0 0 Z " fill="#9E0A0B" transform="translate(114,156)"/>
<path d="M0 0 C4.223 2.534 6.783 4.566 9 9 C5.625 8.438 5.625 8.438 2 7 C0.562 3.375 0.562 3.375 0 0 Z " fill="#9C0B0D" transform="translate(170,141)"/>
<path d="M0 0 C0 3.784 -1.103 5.749 -3 9 C-5.188 10.875 -5.188 10.875 -7 12 C-7.66 11.67 -8.32 11.34 -9 11 C-8.066 9.727 -7.127 8.457 -6.188 7.188 C-5.665 6.48 -5.143 5.772 -4.605 5.043 C-3.169 3.215 -1.682 1.601 0 0 Z " fill="#A70A0E" transform="translate(24,186)"/>
<path d="M0 0 C4.223 2.534 6.783 4.566 9 9 C6.352 8.642 4.445 8.318 2.25 6.75 C0.682 4.555 0.358 2.648 0 0 Z " fill="#970C0C" transform="translate(106,77)"/>
<path d="M0 0 C2.25 0.125 2.25 0.125 5 1 C7.312 4.062 7.312 4.062 9 7 C8.67 7.66 8.34 8.32 8 9 C4.369 6.35 2.101 3.982 0 0 Z " fill="#960D0D" transform="translate(77,106)"/>
<path d="M0 0 C1.812 1.375 1.812 1.375 2.562 4 C2.604 4.392 2.604 4.392 2.812 6.375 C2.441 6.045 2.441 6.045 0.562 4.375 C-2.188 2.375 -2.188 2.375 -6.188 2.375 C-6.188 1.715 -6.188 1.055 -6.188 0.375 C-3.775 -0.487 -2.493 -0.712 0 0 Z " fill="#A40808" transform="translate(124.1875,148.625)"/>
<path d="M0 0 C0.825 0.165 0.825 0.165 5 1 C5 3.31 5 5.62 5 8 C3.68 8.33 2.36 8.66 1 9 C1.206 8.072 1.412 7.144 1.625 6.188 C2 3 2 3 0 0 Z " fill="#9D0707" transform="translate(86,115)"/>
<path d="M0 0 C0.66 0.33 1.32 0.66 2 1 C1.34 1.578 0.68 2.155 0 2.75 C-2 5 -2 5 -2 9 C-2.99 9 -3.98 9 -5 9 C-5.312 6.188 -5.312 6.188 -5 3 C-2.625 1.062 -2.625 1.062 0 0 Z " fill="#A20808" transform="translate(153,113)"/>
<path d="M0 0 C0.99 0.33 1.98 0.66 3 1 C1.35 2.65 -0.3 4.3 -2 6 C-2.33 4.68 -2.66 3.36 -3 2 C-2.01 1.34 -1.02 0.68 0 0 Z " fill="#960B0C" transform="translate(62,204)"/>
<path d="M0 0 C4.75 1.875 4.75 1.875 7 3 C7.625 5.562 7.625 5.562 8 8 C6.851 7.046 5.706 6.086 4.562 5.125 C3.924 4.591 3.286 4.058 2.629 3.508 C1 2 1 2 0 0 Z " fill="#9F0C0E" transform="translate(175,203)"/>
<path d="M0 0 C0.99 0.33 1.98 0.66 3 1 C1.35 2.65 -0.3 4.3 -2 6 C-2.33 4.68 -2.66 3.36 -3 2 C-2.01 1.34 -1.02 0.68 0 0 Z " fill="#960B0C" transform="translate(78,188)"/>
<path d="M0 0 C0.99 0.33 1.98 0.66 3 1 C1.35 2.65 -0.3 4.3 -2 6 C-2.33 4.68 -2.66 3.36 -3 2 C-2.01 1.34 -1.02 0.68 0 0 Z " fill="#960B0C" transform="translate(94,172)"/>
<path d="M0 0 C0.33 0.66 0.66 1.32 1 2 C0.67 2.495 0.67 2.495 -1 5 C-1.66 5 -2.32 5 -3 5 C-3.33 5.99 -3.66 6.98 -4 8 C-4.99 7.67 -5.98 7.34 -7 7 C-4.69 4.69 -2.38 2.38 0 0 Z " fill="#A5090D" transform="translate(26,21)"/>
<path d="M0 0 C0.99 0.33 1.98 0.66 3 1 C1.35 2.65 -0.3 4.3 -2 6 C-2.33 5.34 -2.66 4.68 -3 4 C-2.67 3.01 -2.34 2.02 -2 1 C-1.34 0.67 -0.68 0.34 0 0 Z " fill="#910C0E" transform="translate(46,220)"/>
</svg>
