<?xml version="1.0" encoding="UTF-8"?>
<!-- Generator: visioncortex VTracer 0.6.12 -->
<svg version="1.1" xmlns="http://www.w3.org/2000/svg" width="240" height="240">
<path d="M0 0 C26.4 0 52.8 0 80 0 C80 6.6 80 13.2 80 20 C60.2 20 40.4 20 20 20 C20 53 20 86 20 120 C86 120 152 120 220 120 C220 87 220 54 220 20 C200.2 20 180.4 20 160 20 C160 13.4 160 6.8 160 0 C186.4 0 212.8 0 240 0 C240 46.2 240 92.4 240 140 C160.8 140 81.6 140 0 140 C0 93.8 0 47.6 0 0 Z " fill="#FEFEFE" transform="translate(0,90)"/>
<path d="M0 0 C3.764 1.507 5.585 3.649 8.062 6.812 C8.848 7.799 9.633 8.785 10.441 9.801 C10.857 10.324 11.272 10.847 11.7 11.385 C13.914 14.135 16.209 16.814 18.5 19.5 C22.62 24.346 26.666 29.245 30.68 34.18 C33.294 37.358 35.957 40.492 38.625 43.625 C51 58.182 51 58.182 51 60 C37.8 60 24.6 60 11 60 C11 96.3 11 132.6 11 170 C4.4 170 -2.2 170 -9 170 C-9 133.7 -9 97.4 -9 60 C-22.2 60 -35.4 60 -49 60 C-44.504 53.256 -44.504 53.256 -42.301 50.738 C-41.819 50.183 -41.336 49.627 -40.84 49.054 C-40.336 48.48 -39.832 47.905 -39.312 47.312 C-38.236 46.071 -37.16 44.829 -36.086 43.586 C-35.56 42.977 -35.033 42.368 -34.491 41.741 C-31.692 38.473 -28.993 35.122 -26.281 31.781 C-23.702 28.636 -21.074 25.535 -18.438 22.438 C-14.448 17.747 -10.553 12.994 -6.727 8.168 C-4.528 5.407 -2.273 2.699 0 0 Z " fill="#FBFBFB" transform="translate(119,10)"/>
<path d="M0 0 C0.66 0.33 1.32 0.66 2 1 C0.02 3.31 -1.96 5.62 -4 8 C-4.66 7.67 -5.32 7.34 -6 7 C-4.02 4.69 -2.04 2.38 0 0 Z " fill="#BDBDBD" transform="translate(99,34)"/>
</svg>
