<?xml version="1.0" encoding="UTF-8"?>
<!-- Generator: visioncortex VTracer 0.6.12 -->
<svg version="1.1" xmlns="http://www.w3.org/2000/svg" width="240" height="240">
<path d="M0 0 C26.4 0 52.8 0 80 0 C80 6.6 80 13.2 80 20 C60.2 20 40.4 20 20 20 C20 53 20 86 20 120 C86 120 152 120 220 120 C220 87 220 54 220 20 C200.2 20 180.4 20 160 20 C160 13.4 160 6.8 160 0 C186.4 0 212.8 0 240 0 C240 46.2 240 92.4 240 140 C160.8 140 81.6 140 0 140 C0 93.8 0 47.6 0 0 Z " fill="#FEFEFE" transform="translate(0,90)"/>
<path d="M0 0 C6.6 0 13.2 0 20 0 C20 39.6 20 79.2 20 120 C33.2 120 46.4 120 60 120 C55.505 126.743 55.505 126.743 53.266 129.297 C52.778 129.858 52.291 130.418 51.789 130.996 C51.535 131.285 51.535 131.285 50.25 132.75 C46.755 136.776 43.301 140.812 40 145 C36.769 149.093 33.407 153.054 30 157 C25.791 161.876 21.687 166.813 17.691 171.867 C15.509 174.62 13.263 177.313 11 180 C7.236 178.493 5.415 176.351 2.938 173.188 C2.152 172.201 1.367 171.215 0.559 170.199 C0.143 169.676 -0.272 169.153 -0.7 168.615 C-2.914 165.865 -5.209 163.186 -7.5 160.5 C-11.62 155.654 -15.666 150.755 -19.68 145.82 C-22.294 142.642 -24.957 139.508 -27.625 136.375 C-40 121.818 -40 121.818 -40 120 C-26.8 120 -13.6 120 0 120 C0 80.4 0 40.8 0 0 Z " fill="#FBFBFB" transform="translate(110,10)"/>
</svg>
