<?xml version="1.0" encoding="UTF-8"?>
<!-- Generator: visioncortex VTracer 0.6.12 -->
<svg version="1.1" xmlns="http://www.w3.org/2000/svg" width="122" height="122">
<path d="M0 0 C0.556 -0.013 0.556 -0.013 3.371 -0.078 C6.952 0.29 8.741 1.041 11.562 3.25 C14.145 7.519 14.118 11.388 13.562 16.25 C12.713 19.38 11.488 22.283 10.188 25.25 C9.459 26.995 8.731 28.739 8.004 30.484 C7.612 31.408 7.22 32.332 6.817 33.283 C4.539 38.67 2.328 44.083 0.125 49.5 C-0.312 50.547 -0.749 51.593 -1.199 52.672 C-3.484 58.281 -5.039 63.195 -5.438 69.25 C1.873 67.435 6.89 64.145 12.562 59.25 C13.882 60.9 15.203 62.55 16.562 64.25 C12.169 74.108 0.826 78.874 -8.438 83.25 C-13.243 84.858 -18.44 84.805 -23.438 84.25 C-26.439 82.449 -27.889 81.347 -29.438 78.25 C-32.401 61.884 -20.91 43.263 -14.438 28.719 C-13.935 27.577 -13.432 26.435 -12.914 25.258 C-12.461 24.243 -12.008 23.229 -11.542 22.184 C-10.417 19.195 -9.853 16.409 -9.438 13.25 C-16.336 15.109 -21.681 18.045 -27.438 22.25 C-30.488 17.857 -30.488 17.857 -30.273 15.293 C-27.63 8.832 -18.634 5.081 -12.699 2.195 C-8.404 0.4 -4.662 0.065 0 0 Z " fill="#F1F1F1" transform="translate(63.4375,37.75)"/>
<path d="M0 0 C3.132 1.624 5.243 3.003 7.375 5.812 C8.713 10.497 8.558 13.884 6.375 18.25 C3.325 21.781 0.709 23.561 -3.953 24.316 C-9.058 24.618 -12.038 23.396 -16 20 C-18.352 16.792 -18.468 13.904 -18 10 C-14.141 2.578 -8.42 -1.677 0 0 Z " fill="#EDEDED" transform="translate(80,0)"/>
</svg>
