<?xml version="1.0" encoding="UTF-8"?>
<!-- Generator: visioncortex VTracer 0.6.12 -->
<svg version="1.1" xmlns="http://www.w3.org/2000/svg" width="428" height="410">
<path d="M0 0 C0.466 -0.002 0.466 -0.002 2.827 -0.011 C5.955 -0.022 9.083 -0.026 12.211 -0.03 C14.453 -0.036 16.696 -0.043 18.938 -0.05 C26.306 -0.071 33.674 -0.081 41.041 -0.091 C43.581 -0.095 46.121 -0.099 48.66 -0.103 C59.229 -0.12 69.798 -0.135 80.366 -0.142 C83.107 -0.144 85.847 -0.146 88.588 -0.148 C89.269 -0.148 89.95 -0.149 90.652 -0.149 C101.667 -0.158 112.682 -0.183 123.697 -0.216 C135.025 -0.249 146.354 -0.266 157.682 -0.27 C164.035 -0.272 170.387 -0.281 176.74 -0.306 C182.723 -0.33 188.707 -0.334 194.69 -0.324 C196.877 -0.323 199.064 -0.329 201.251 -0.343 C224.007 -0.479 242.603 4.116 260.049 19.452 C277.017 36.274 282.782 57.128 282.926 80.355 C282.927 81.324 282.928 82.293 282.929 83.291 C282.934 84.344 282.939 85.398 282.944 86.483 C282.959 89.928 282.966 93.374 282.971 96.819 C282.974 98.003 282.977 99.186 282.98 100.406 C282.995 106.658 283.004 112.91 283.008 119.162 C283.014 125.611 283.038 132.059 283.066 138.507 C283.085 143.479 283.09 148.451 283.092 153.424 C283.095 155.801 283.103 158.179 283.116 160.557 C283.133 163.879 283.131 167.2 283.124 170.521 C283.134 171.498 283.143 172.475 283.152 173.481 C283.118 179.142 282.479 183.143 279.768 188.147 C277.211 190.339 275.902 190.155 272.518 189.96 C269.209 189.243 266.398 188.175 263.284 186.893 C258.717 185.539 253.893 185.341 249.159 184.967 C245.768 184.147 245.768 184.147 243.588 182.241 C240.963 177.779 241.211 173.915 241.254 168.824 C241.25 168.305 241.25 168.305 241.232 165.679 C241.213 162.247 241.221 158.817 241.229 155.385 C241.219 152.995 241.207 150.605 241.193 148.215 C241.161 141.917 241.15 135.62 241.146 129.322 C241.138 119.26 241.102 109.199 241.054 99.137 C241.042 95.631 241.042 92.125 241.044 88.618 C241.038 86.451 241.031 84.284 241.023 82.117 C241.027 81.151 241.032 80.185 241.036 79.19 C240.974 68.616 239.405 59.631 232.768 51.147 C223.938 42.639 213.786 40.99 201.976 41.013 C201.546 41.012 201.546 41.012 199.366 41.007 C196.493 41 193.62 41.001 190.747 41.002 C188.682 40.999 186.617 40.996 184.551 40.992 C178.95 40.983 173.349 40.981 167.748 40.98 C164.246 40.979 160.745 40.977 157.244 40.974 C145.024 40.965 132.805 40.961 120.585 40.962 C109.202 40.962 97.82 40.952 86.437 40.936 C76.657 40.923 66.876 40.918 57.096 40.918 C51.258 40.919 45.42 40.916 39.582 40.905 C34.091 40.895 28.6 40.895 23.109 40.903 C21.097 40.904 19.085 40.901 17.073 40.895 C14.32 40.888 11.567 40.892 8.814 40.9 C8.024 40.895 7.234 40.89 6.42 40.884 C-3.329 40.944 -11.432 43.138 -19.232 49.147 C-27.461 57.67 -29.388 67.323 -29.366 78.812 C-29.367 79.242 -29.367 79.242 -29.373 81.417 C-29.379 84.291 -29.378 87.165 -29.377 90.039 C-29.38 92.102 -29.384 94.166 -29.387 96.229 C-29.396 101.831 -29.399 107.432 -29.399 113.033 C-29.4 116.535 -29.402 120.036 -29.405 123.537 C-29.414 135.758 -29.418 147.979 -29.417 160.199 C-29.417 171.582 -29.427 182.964 -29.443 194.346 C-29.456 204.126 -29.462 213.905 -29.461 223.684 C-29.461 229.522 -29.463 235.359 -29.474 241.197 C-29.484 246.69 -29.484 252.182 -29.477 257.675 C-29.475 259.687 -29.478 261.698 -29.484 263.71 C-29.492 266.465 -29.487 269.22 -29.479 271.975 C-29.484 272.762 -29.49 273.55 -29.495 274.362 C-29.433 284.43 -27.52 293.11 -21.232 301.147 C-11.361 310.658 -0.267 311.295 12.698 311.289 C13.883 311.292 15.067 311.296 16.288 311.3 C18.852 311.307 21.416 311.312 23.98 311.316 C28.035 311.322 32.09 311.338 36.145 311.357 C37.537 311.364 38.928 311.37 40.319 311.376 C40.667 311.378 40.667 311.378 42.429 311.386 C51.862 311.428 61.294 311.461 70.727 311.473 C77.103 311.481 83.478 311.504 89.854 311.542 C93.225 311.562 96.595 311.575 99.965 311.57 C103.719 311.567 107.472 311.589 111.226 311.617 C112.341 311.611 113.457 311.604 114.606 311.597 C115.628 311.61 116.65 311.622 117.702 311.635 C118.589 311.637 119.476 311.64 120.39 311.642 C123.547 312.313 124.729 313.703 126.768 316.147 C127.698 317.805 128.57 319.496 129.393 321.21 C132.337 326.857 136.114 331.053 140.596 335.542 C142.962 338.38 143.936 340.565 144.768 344.147 C143.876 347.635 142.617 349.948 139.768 352.147 C137.114 352.527 137.114 352.527 133.852 352.535 C133.233 352.54 133.233 352.54 130.106 352.565 C128.733 352.561 127.36 352.556 125.988 352.551 C124.544 352.557 123.1 352.564 121.656 352.572 C117.727 352.59 113.799 352.589 109.87 352.583 C106.583 352.58 103.297 352.586 100.01 352.592 C92.242 352.606 84.474 352.605 76.706 352.593 C68.722 352.582 60.739 352.596 52.755 352.623 C45.885 352.645 39.014 352.651 32.143 352.646 C28.048 352.642 23.952 352.644 19.856 352.662 C15.992 352.677 12.128 352.673 8.264 352.654 C6.857 352.651 5.451 352.654 4.045 352.664 C-16.75 352.809 -35.175 345.622 -50.232 331.147 C-67.402 313.236 -70.847 292.372 -70.75 268.569 C-70.755 266.325 -70.762 264.081 -70.771 261.837 C-70.789 255.784 -70.782 249.73 -70.769 243.677 C-70.759 237.317 -70.769 230.958 -70.775 224.599 C-70.783 213.242 -70.77 201.884 -70.75 190.526 C-70.732 180.258 -70.735 169.99 -70.754 159.721 C-70.775 147.756 -70.783 135.791 -70.771 123.826 C-70.765 117.507 -70.764 111.189 -70.777 104.87 C-70.789 98.927 -70.781 92.984 -70.758 87.042 C-70.752 84.871 -70.754 82.7 -70.763 80.53 C-70.846 57.999 -66.406 37.926 -50.232 21.147 C-35.92 7.933 -19.65 -0.004 0 0 Z " fill="#FCFCFC" transform="translate(83.23202514648438,7.8528289794921875)"/>
<path d="M0 0 C2.53 0.856 2.53 0.856 3.923 2.87 C4.28 3.753 4.638 4.637 5.006 5.547 C5.419 6.545 5.832 7.543 6.257 8.571 C6.677 9.655 7.097 10.739 7.53 11.856 C7.963 12.956 8.395 14.057 8.841 15.191 C10.675 19.911 12.474 24.643 14.249 29.385 C20.752 46.321 28.107 57.715 44.53 65.856 C50.966 68.713 57.574 71.168 64.155 73.668 C66.766 74.667 69.375 75.668 71.983 76.675 C73.592 77.296 75.204 77.912 76.817 78.522 C82.306 80.632 82.306 80.632 84.53 82.856 C84.686 85.739 84.686 85.739 83.53 88.856 C80.916 90.688 78.025 91.66 75.034 92.731 C74.171 93.063 73.308 93.396 72.419 93.738 C69.652 94.8 66.873 95.83 64.092 96.856 C60.464 98.218 56.84 99.594 53.221 100.981 C52.788 101.146 52.788 101.146 50.598 101.983 C36.431 107.505 25.679 115.232 18.919 129.179 C17.354 132.82 15.862 136.484 14.405 140.168 C13.902 141.41 13.398 142.652 12.893 143.893 C10.919 148.776 8.968 153.666 7.121 158.599 C6.681 159.771 6.241 160.942 5.788 162.149 C5.4 163.2 5.012 164.25 4.612 165.333 C3.53 167.856 3.53 167.856 1.53 169.856 C-0.908 170.293 -0.908 170.293 -3.47 169.856 C-6.372 165.829 -8.015 161.255 -9.798 156.66 C-10.44 155.04 -11.082 153.421 -11.724 151.801 C-12.72 149.276 -13.713 146.749 -14.698 144.219 C-22.35 124.614 -30.004 111.969 -49.625 103.083 C-57.091 99.862 -64.677 96.909 -72.262 93.98 C-72.904 93.73 -73.547 93.479 -74.208 93.221 C-75.976 92.533 -77.746 91.852 -79.516 91.171 C-82.194 89.979 -84.23 88.724 -86.47 86.856 C-86.259 84.509 -86.259 84.509 -85.47 81.856 C-83.494 80.48 -83.494 80.48 -80.845 79.41 C-79.847 78.998 -78.85 78.585 -77.822 78.159 C-76.716 77.729 -75.61 77.299 -74.47 76.856 C-73.302 76.392 -72.134 75.928 -70.931 75.45 C-66.467 73.692 -61.998 71.943 -57.513 70.236 C-42.784 64.617 -29.919 58.32 -22.724 43.723 C-22.378 43.024 -22.031 42.326 -21.674 41.606 C-17.739 33.545 -14.413 25.247 -11.095 16.918 C-9.887 13.885 -8.67 10.856 -7.447 7.828 C-7.176 7.14 -6.905 6.452 -6.626 5.742 C-4.205 -0.246 -4.205 -0.246 0 0 Z " fill="#F9F9F9" transform="translate(334.47021484375,232.144287109375)"/>
<path d="M0 0 C1.305 0.003 2.61 0.006 3.955 0.01 C5.256 -0.006 6.558 -0.022 7.898 -0.039 C8.521 -0.039 8.521 -0.039 11.67 -0.041 C12.815 -0.044 13.959 -0.047 15.138 -0.05 C18.018 0.322 18.018 0.322 19.754 1.373 C21.667 4.324 22.586 7.533 23.584 10.873 C23.819 11.63 24.053 12.387 24.295 13.166 C24.8 14.799 25.301 16.433 25.799 18.068 C27.129 22.437 28.489 26.797 29.846 31.158 C30.118 32.036 30.39 32.913 30.67 33.817 C32.953 41.168 35.363 48.469 37.83 55.76 C43.85 73.637 49.546 91.618 55.247 109.598 C57.024 115.199 58.809 120.797 60.605 126.392 C61.651 129.651 62.691 132.912 63.729 136.173 C64.208 137.675 64.69 139.175 65.175 140.675 C65.836 142.725 66.488 144.777 67.139 146.83 C67.504 147.971 67.869 149.112 68.246 150.288 C68.983 153.187 69.413 155.36 69.018 158.322 C67.5 160.531 66.618 161.208 63.98 161.71 C63.6 161.712 63.6 161.712 61.674 161.721 C60.84 161.725 60.006 161.728 59.146 161.732 C58.713 161.727 58.713 161.727 56.518 161.697 C55.65 161.709 54.782 161.72 53.889 161.732 C53.055 161.729 52.221 161.725 51.361 161.721 C50.6 161.717 49.839 161.714 49.055 161.71 C47.018 161.322 47.018 161.322 44.018 158.322 C41.378 150.402 38.738 142.482 36.018 134.322 C14.568 133.992 -6.882 133.662 -28.982 133.322 C-29.312 135.632 -29.642 137.942 -29.982 140.322 C-30.788 143.457 -31.827 146.505 -32.857 149.572 C-33.114 150.374 -33.37 151.176 -33.635 152.002 C-33.891 152.773 -34.148 153.544 -34.412 154.338 C-34.641 155.032 -34.871 155.726 -35.107 156.44 C-36.129 158.638 -37.053 159.849 -38.982 161.322 C-42.119 161.944 -45.291 161.786 -48.482 161.76 C-49.35 161.78 -50.218 161.8 -51.111 161.82 C-57.313 161.816 -57.313 161.816 -60.139 159.732 C-62.59 152.73 -58.034 143.81 -55.854 137.178 C-55.427 135.867 -55.002 134.557 -54.577 133.246 C-53.67 130.453 -52.759 127.661 -51.846 124.871 C-50.407 120.473 -48.975 116.073 -47.545 111.672 C-47.062 110.185 -46.579 108.698 -46.096 107.212 C-45.976 106.843 -45.976 106.843 -45.37 104.978 C-44.641 102.735 -43.911 100.492 -43.18 98.249 C-39.188 85.983 -35.255 73.7 -31.341 61.409 C-26.724 46.92 -22.093 32.436 -17.325 17.996 C-16.853 16.567 -16.384 15.137 -15.916 13.707 C-15.291 11.796 -14.656 9.887 -14.021 7.979 C-13.673 6.925 -13.324 5.871 -12.965 4.785 C-10.515 -1.355 -5.803 0.033 0 0 Z M3.018 35.322 C0.161 44.083 -2.69 52.845 -5.536 61.61 C-6.858 65.68 -8.181 69.749 -9.508 73.817 C-10.789 77.745 -12.066 81.674 -13.34 85.605 C-13.826 87.102 -14.313 88.598 -14.802 90.095 C-15.489 92.195 -16.17 94.297 -16.849 96.399 C-17.238 97.594 -17.627 98.788 -18.027 100.019 C-18.982 103.322 -18.982 103.322 -19.982 109.322 C-4.142 109.322 11.698 109.322 28.018 109.322 C26.81 103.282 25.755 98.033 23.863 92.312 C23.658 91.686 23.453 91.061 23.241 90.416 C22.576 88.391 21.902 86.368 21.229 84.346 C20.76 82.925 20.292 81.505 19.825 80.084 C18.603 76.377 17.375 72.672 16.145 68.968 C14.888 65.175 13.636 61.379 12.385 57.584 C9.936 50.161 7.479 42.741 5.018 35.322 C4.358 35.322 3.698 35.322 3.018 35.322 Z " fill="#F8F8F8" transform="translate(143.982421875,98.677734375)"/>
<path d="M0 0 C1.924 -0.372 1.924 -0.372 4.246 -0.363 C4.665 -0.363 4.665 -0.363 6.783 -0.361 C7.221 -0.353 7.221 -0.353 9.438 -0.312 C10.31 -0.316 11.182 -0.319 12.08 -0.322 C18.599 -0.267 18.599 -0.267 22 2 C22.378 4.692 22.378 4.692 22.381 8.187 C22.386 8.829 22.39 9.47 22.395 10.131 C22.407 12.29 22.398 14.448 22.388 16.607 C22.392 18.151 22.398 19.695 22.404 21.239 C22.418 25.439 22.412 29.639 22.403 33.84 C22.395 38.228 22.402 42.617 22.407 47.006 C22.413 54.377 22.405 61.748 22.391 69.119 C22.375 77.65 22.38 86.18 22.397 94.711 C22.41 102.026 22.412 109.34 22.404 116.655 C22.4 121.028 22.399 125.401 22.409 129.774 C22.418 133.884 22.412 137.995 22.394 142.105 C22.39 143.617 22.391 145.129 22.398 146.641 C22.406 148.698 22.396 150.755 22.381 152.813 C22.38 153.966 22.379 155.119 22.378 156.308 C22.253 157.196 22.128 158.085 22 159 C17.929 161.714 14.777 161.331 10 161.312 C9.59 161.321 9.59 161.321 7.516 161.361 C6.727 161.362 5.938 161.363 5.125 161.363 C4.765 161.365 4.765 161.365 2.945 161.372 C0.328 160.871 -0.4 160.13 -2 158 C-2.375 155.219 -2.375 155.219 -2.374 151.775 C-2.381 150.471 -2.388 149.167 -2.395 147.824 C-2.388 146.375 -2.38 144.927 -2.372 143.479 C-2.375 141.956 -2.378 140.433 -2.383 138.911 C-2.393 134.772 -2.383 130.634 -2.37 126.496 C-2.359 122.169 -2.363 117.842 -2.365 113.515 C-2.366 106.249 -2.355 98.982 -2.336 91.715 C-2.315 83.309 -2.312 74.903 -2.318 66.496 C-2.323 58.416 -2.318 50.336 -2.307 42.256 C-2.302 38.814 -2.301 35.373 -2.303 31.931 C-2.305 27.879 -2.297 23.828 -2.281 19.777 C-2.277 18.288 -2.276 16.799 -2.279 15.31 C-2.282 13.282 -2.272 11.253 -2.261 9.225 C-2.259 8.089 -2.257 6.952 -2.254 5.781 C-2 3 -2 3 0 0 Z " fill="#FEFEFE" transform="translate(251,99)"/>
<path d="M0 0 C-0.66 0 -1.32 0 -2 0 C-2.144 0.309 -2.144 0.309 -2.875 1.875 C-4 4 -4 4 -6 6 C-6.66 6 -7.32 6 -8 6 C-7.398 3.98 -6.727 1.979 -6 0 C-3.509 -1.245 -2.589 -0.777 0 0 Z " fill="#C8C8C8" transform="translate(336,233)"/>
</svg>
