<svg xmlns="http://www.w3.org/2000/svg" viewBox="0 0 13 11" width="260" height="220" shape-rendering="crispEdges">
  <!-- Row 0 -->
  <rect x="2" y="0" width="1" height="1" fill="black"/>
  <rect x="3" y="0" width="1" height="1" fill="black"/>
  <rect x="4" y="0" width="1" height="1" fill="black"/>
  <rect x="8" y="0" width="1" height="1" fill="black"/>
  <rect x="9" y="0" width="1" height="1" fill="black"/>
  <rect x="10" y="0" width="1" height="1" fill="black"/>

  <!-- Row 1 -->
  <rect x="1" y="1" width="1" height="1" fill="black"/>
  <rect x="2" y="1" width="1" height="1" fill="red"/>
  <rect x="3" y="1" width="1" height="1" fill="red"/>
  <rect x="4" y="1" width="1" height="1" fill="red"/>
  <rect x="5" y="1" width="1" height="1" fill="black"/>
  <rect x="7" y="1" width="1" height="1" fill="black"/>
  <rect x="8" y="1" width="1" height="1" fill="red"/>
  <rect x="9" y="1" width="1" height="1" fill="red"/>
  <rect x="10" y="1" width="1" height="1" fill="red"/>
  <rect x="11" y="1" width="1" height="1" fill="black"/>

  <!-- Row 2 -->
  <rect x="0" y="2" width="1" height="1" fill="black"/>
  <rect x="1" y="2" width="1" height="1" fill="red"/>
  <rect x="2" y="2" width="1" height="1" fill="red"/>
  <rect x="3" y="2" width="1" height="1" fill="red"/>
  <rect x="4" y="2" width="1" height="1" fill="red"/>
  <rect x="5" y="2" width="1" height="1" fill="red"/>
  <rect x="6" y="2" width="1" height="1" fill="black"/>
  <rect x="7" y="2" width="1" height="1" fill="red"/>
  <rect x="8" y="2" width="1" height="1" fill="red"/>
  <rect x="9" y="2" width="1" height="1" fill="white"/>
  <rect x="10" y="2" width="1" height="1" fill="white"/>
  <rect x="11" y="2" width="1" height="1" fill="red"/>
  <rect x="12" y="2" width="1" height="1" fill="black"/>

  <!-- Row 3 -->
  <rect x="0" y="3" width="1" height="1" fill="black"/>
  <rect x="1" y="3" width="1" height="1" fill="red"/>
  <rect x="2" y="3" width="1" height="1" fill="red"/>
  <rect x="3" y="3" width="1" height="1" fill="red"/>
  <rect x="4" y="3" width="1" height="1" fill="red"/>
  <rect x="5" y="3" width="1" height="1" fill="red"/>
  <rect x="6" y="3" width="1" height="1" fill="red"/>
  <rect x="7" y="3" width="1" height="1" fill="red"/>
  <rect x="8" y="3" width="1" height="1" fill="red"/>
  <rect x="9" y="3" width="1" height="1" fill="red"/>
  <rect x="10" y="3" width="1" height="1" fill="red"/>
  <rect x="11" y="3" width="1" height="1" fill="red"/>
  <rect x="12" y="3" width="1" height="1" fill="black"/>

  <!-- Row 4 -->
  <rect x="0" y="4" width="1" height="1" fill="black"/>
  <rect x="1" y="4" width="1" height="1" fill="red"/>
  <rect x="2" y="4" width="1" height="1" fill="red"/>
  <rect x="3" y="4" width="1" height="1" fill="red"/>
  <rect x="4" y="4" width="1" height="1" fill="red"/>
  <rect x="5" y="4" width="1" height="1" fill="red"/>
  <rect x="6" y="4" width="1" height="1" fill="red"/>
  <rect x="7" y="4" width="1" height="1" fill="red"/>
  <rect x="8" y="4" width="1" height="1" fill="red"/>
  <rect x="9" y="4" width="1" height="1" fill="red"/>
  <rect x="10" y="4" width="1" height="1" fill="red"/>
  <rect x="11" y="4" width="1" height="1" fill="red"/>
  <rect x="12" y="4" width="1" height="1" fill="black"/>

  <!-- Row 5 -->
  <rect x="1" y="5" width="1" height="1" fill="black"/>
  <rect x="2" y="5" width="1" height="1" fill="red"/>
  <rect x="3" y="5" width="1" height="1" fill="red"/>
  <rect x="4" y="5" width="1" height="1" fill="red"/>
  <rect x="5" y="5" width="1" height="1" fill="red"/>
  <rect x="6" y="5" width="1" height="1" fill="red"/>
  <rect x="7" y="5" width="1" height="1" fill="red"/>
  <rect x="8" y="5" width="1" height="1" fill="red"/>
  <rect x="9" y="5" width="1" height="1" fill="red"/>
  <rect x="10" y="5" width="1" height="1" fill="red"/>
  <rect x="11" y="5" width="1" height="1" fill="black"/>

  <!-- Row 6 -->
  <rect x="2" y="6" width="1" height="1" fill="black"/>
  <rect x="3" y="6" width="1" height="1" fill="red"/>
  <rect x="4" y="6" width="1" height="1" fill="red"/>
  <rect x="5" y="6" width="1" height="1" fill="red"/>
  <rect x="6" y="6" width="1" height="1" fill="red"/>
  <rect x="7" y="6" width="1" height="1" fill="red"/>
  <rect x="8" y="6" width="1" height="1" fill="red"/>
  <rect x="9" y="6" width="1" height="1" fill="red"/>
  <rect x="10" y="6" width="1" height="1" fill="black"/>

  <!-- Row 7 -->
  <rect x="3" y="7" width="1" height="1" fill="black"/>
  <rect x="4" y="7" width="1" height="1" fill="red"/>
  <rect x="5" y="7" width="1" height="1" fill="red"/>
  <rect x="6" y="7" width="1" height="1" fill="red"/>
  <rect x="7" y="7" width="1" height="1" fill="red"/>
  <rect x="8" y="7" width="1" height="1" fill="red"/>
  <rect x="9" y="7" width="1" height="1" fill="black"/>

  <!-- Row 8 -->
  <rect x="4" y="8" width="1" height="1" fill="black"/>
  <rect x="5" y="8" width="1" height="1" fill="red"/>
  <rect x="6" y="8" width="1" height="1" fill="red"/>
  <rect x="7" y="8" width="1" height="1" fill="red"/>
  <rect x="8" y="8" width="1" height="1" fill="black"/>

  <!-- Row 9 -->
  <rect x="5" y="9" width="1" height="1" fill="black"/>
  <rect x="6" y="9" width="1" height="1" fill="red"/>
  <rect x="7" y="9" width="1" height="1" fill="black"/>

  <!-- Row 10 -->
  <rect x="6" y="10" width="1" height="1" fill="black"/>
</svg>
