<?xml version="1.0" encoding="UTF-8"?>
<!-- Generator: visioncortex VTracer 0.6.12 -->
<svg version="1.1" xmlns="http://www.w3.org/2000/svg" width="240" height="240">
<path d="M0 0 C20.799 15.718 33.834 37.724 39.02 63.118 C42.059 86.101 37.894 107.839 27.547 128.453 C27.19 129.165 26.833 129.877 26.465 130.611 C26.194 131.15 25.924 131.688 25.645 132.243 C25.953 132.546 25.953 132.546 27.51 134.081 C33.331 139.822 39.143 145.573 44.944 151.334 C47.926 154.296 50.911 157.253 53.906 160.202 C56.8 163.052 59.684 165.913 62.562 168.78 C63.656 169.868 64.755 170.952 65.857 172.032 C81.125 187.011 81.125 187.011 81.77 197.146 C81.33 204.523 78.716 210.271 73.579 215.548 C67.465 220.908 62.035 221.703 53.989 221.872 C44.223 220.035 37.391 211.38 30.708 204.599 C29.576 203.462 28.444 202.325 27.312 201.19 C24.352 198.219 21.402 195.24 18.454 192.258 C15.436 189.209 12.409 186.169 9.383 183.128 C3.462 177.175 -2.449 171.212 -8.355 165.243 C-8.858 165.473 -9.36 165.702 -9.878 165.939 C-12.199 166.995 -14.523 168.043 -16.847 169.091 C-17.242 169.271 -17.242 169.271 -19.242 170.185 C-42.644 180.698 -69.432 181.289 -93.48 172.556 C-105.793 167.8 -116.516 161.078 -126.355 152.243 C-127.05 151.631 -127.745 151.019 -128.46 150.388 C-144.417 135.451 -156.189 112.277 -157.532 90.353 C-157.822 76.109 -157.87 62.845 -153.355 49.243 C-153.146 48.605 -152.937 47.967 -152.722 47.31 C-147.881 32.919 -139.904 21.116 -129.355 10.243 C-128.756 9.57 -128.156 8.897 -127.539 8.204 C-94.943 -27.137 -37.319 -26.842 0 0 Z M-104.355 29.243 C-104.693 29.534 -104.693 29.534 -106.406 31.009 C-118.292 41.995 -125.865 58.296 -126.593 74.458 C-127.074 95.031 -121.321 112.382 -107.109 127.657 C-93.305 140.849 -75.631 147.694 -56.507 147.458 C-36.717 146.109 -21.257 138.024 -7.64 123.868 C4.381 110.059 9.848 92.423 8.645 74.243 C6.879 55.789 -1.816 39.781 -15.355 27.243 C-41.529 6.051 -79.091 7.06 -104.355 29.243 Z " fill="#F8F8F8" transform="translate(157.35498046875,18.7568359375)"/>
<path d="M0 0 C2.505 1.664 4.807 3.418 7.105 5.355 C7.738 5.878 8.371 6.4 9.023 6.938 C15.416 12.737 20.491 21.139 23.105 29.355 C22.775 30.345 22.445 31.335 22.105 32.355 C21.239 31.386 20.373 30.417 19.48 29.418 C5.483 15.561 -12.963 9.043 -32.372 9.043 C-45.725 9.266 -62.746 13.573 -72.723 23.102 C-73.109 23.515 -73.496 23.929 -73.895 24.355 C-74.555 24.355 -75.215 24.355 -75.895 24.355 C-74.464 18.633 -71.618 14.789 -67.895 10.355 C-67.34 9.681 -66.786 9.007 -66.215 8.312 C-49.843 -9.852 -20.536 -11.667 0 0 Z " fill="#EBEBEB" transform="translate(126.89453125,55.64453125)"/>
</svg>
