<?xml version="1.0" encoding="UTF-8"?>
<!-- Generator: visioncortex VTracer 0.6.12 -->
<svg version="1.1" xmlns="http://www.w3.org/2000/svg" width="200" height="200">
<path d="M0 0 C2.438 1.563 2.438 1.563 4 4 C4.562 7.438 4.562 7.438 4 11 C1.202 14.763 -2.445 17.044 -6.25 19.75 C-22.926 31.776 -33.976 49.599 -38.469 69.684 C-42.277 93.457 -38.144 116.832 -24.055 136.75 C-22.113 139.247 -20.1 141.635 -18 144 C-17.408 144.686 -16.817 145.372 -16.207 146.078 C-1.688 161.805 20.278 170.052 41.3 170.976 C63.593 171.515 84.349 163.785 101 149 C101.686 148.408 102.372 147.817 103.078 147.207 C119.088 132.427 126.967 110.207 127.996 88.883 C128.019 66.183 120.178 45.925 105 29 C104.448 28.366 103.897 27.732 103.328 27.078 C99.208 22.632 94.389 19.341 89.354 16.019 C85.097 13.193 85.097 13.193 84 11 C83.645 7.164 83.453 4.854 85.562 1.562 C88.945 -0.606 91.022 -0.38 95 0 C97.484 1.307 99.429 2.509 101.625 4.188 C101.924 4.409 101.924 4.409 103.436 5.531 C124.69 21.759 139.037 44.606 143.603 71.024 C146.58 93.345 143.036 114.054 133 134 C132.477 135.058 131.953 136.117 131.414 137.207 C126.87 145.663 120.742 152.274 114 159 C113.1 159.911 112.2 160.823 111.273 161.762 C92.027 180.298 66.47 187.68 40.313 187.47 C30.749 187.228 22.033 186.16 13 183 C12.288 182.753 11.576 182.507 10.843 182.252 C-3.501 177.126 -14.989 169.562 -26 159 C-26.887 158.154 -27.774 157.309 -28.688 156.438 C-29.069 156.035 -29.069 156.035 -31 154 C-31.518 153.477 -32.036 152.953 -32.57 152.414 C-51.116 132.704 -57.043 105.894 -56.379 79.703 C-55.736 65.272 -51.405 52.844 -45 40 C-44.477 38.94 -43.953 37.881 -43.414 36.789 C-36.535 24.004 -16.171 -2.799 0 0 Z " fill="#F1F1F1" transform="translate(56,13)"/>
<path d="M0 0 C0.33 0.006 0.33 0.006 2 0.039 C2.66 0.026 3.32 0.013 4 0 C7.182 1.057 8.205 2.876 10 5.664 C10.395 8.492 10.565 10.934 10.546 13.759 C10.556 14.56 10.567 15.36 10.577 16.185 C10.607 18.82 10.608 21.454 10.609 24.09 C10.624 25.921 10.641 27.752 10.659 29.584 C10.703 34.396 10.723 39.207 10.738 44.019 C10.758 48.933 10.8 53.846 10.84 58.76 C10.915 68.394 10.965 78.029 11 87.664 C11.717 86.942 12.433 86.22 13.171 85.477 C15.826 82.804 18.485 80.134 21.144 77.465 C22.295 76.309 23.446 75.152 24.595 73.993 C26.246 72.33 27.9 70.671 29.555 69.012 C30.069 68.492 30.584 67.972 31.114 67.437 C35.75 62.8 35.75 62.8 39.875 62.352 C43 62.664 43 62.664 45.312 64.289 C47.517 67.391 48.222 68.818 48 72.664 C46.734 74.435 46.734 74.435 44.992 76.34 C44.351 77.044 43.711 77.748 43.051 78.474 C42.374 79.197 41.697 79.919 41 80.664 C40.682 81.004 40.682 81.004 39.071 82.725 C34.757 87.279 30.36 91.752 25.958 96.221 C24.355 97.856 22.76 99.499 21.173 101.15 C18.865 103.549 16.531 105.921 14.191 108.289 C13.489 109.03 12.787 109.77 12.063 110.533 C9.043 113.541 6.449 116.12 2.095 116.675 C-3.886 116.041 -7.762 110.957 -11.715 106.871 C-12.611 105.973 -13.508 105.075 -14.431 104.149 C-16.32 102.249 -18.198 100.343 -20.066 98.422 C-22.455 95.964 -24.87 93.534 -27.295 91.112 C-29.613 88.793 -31.914 86.457 -34.215 84.121 C-35.081 83.25 -35.948 82.379 -36.841 81.482 C-37.636 80.661 -38.431 79.841 -39.25 78.995 C-39.952 78.278 -40.654 77.561 -41.377 76.822 C-43.228 74.36 -43.766 72.721 -44 69.664 C-42.614 66.827 -41.23 64.894 -39 62.664 C-36.375 62.102 -36.375 62.102 -33 62.664 C-26.556 67.295 -21.064 73.479 -15.5 79.102 C-14.678 79.928 -13.855 80.755 -13.008 81.607 C-11.003 83.624 -9 85.643 -7 87.664 C-6.996 86.648 -6.993 85.632 -6.989 84.585 C-6.952 75.006 -6.894 65.427 -6.816 55.849 C-6.777 50.924 -6.744 46 -6.729 41.075 C-6.714 36.323 -6.679 31.57 -6.632 26.817 C-6.617 25.005 -6.609 23.192 -6.608 21.379 C-6.606 18.838 -6.579 16.299 -6.546 13.759 C-6.548 13.385 -6.548 13.385 -6.561 11.49 C-6.459 6.384 -5.292 1.757 0 0 Z " fill="#F1F1F1" transform="translate(98,-0.6640625)"/>
<path d="M0 0 C2.81 1.794 4.509 3.019 6 6 C6.581 13.09 6.581 13.09 4.125 16.938 C0.87 20.097 -1.424 20.334 -5.961 20.293 C-9.131 19.837 -10.819 18.247 -13 16 C-14.601 12.798 -14.499 9.474 -14 6 C-10.328 0.247 -6.717 -0.965 0 0 Z " fill="#F0F0F0" transform="translate(104,130)"/>
<path d="M0 0 C2.81 1.794 4.509 3.019 6 6 C6.581 13.09 6.581 13.09 4.125 16.938 C0.87 20.097 -1.424 20.334 -5.961 20.293 C-9.131 19.837 -10.819 18.247 -13 16 C-14.601 12.798 -14.499 9.474 -14 6 C-10.328 0.247 -6.717 -0.965 0 0 Z " fill="#EFEFEF" transform="translate(134,130)"/>
<path d="M0 0 C2.81 1.794 4.509 3.019 6 6 C6.581 13.09 6.581 13.09 4.125 16.938 C0.87 20.097 -1.424 20.334 -5.961 20.293 C-9.131 19.837 -10.819 18.247 -13 16 C-14.601 12.798 -14.499 9.474 -14 6 C-10.328 0.247 -6.717 -0.965 0 0 Z " fill="#EFEFEF" transform="translate(74,130)"/>
</svg>
