<?xml version="1.0" encoding="UTF-8"?>
<!-- Generator: visioncortex VTracer 0.6.12 -->
<svg version="1.1" xmlns="http://www.w3.org/2000/svg" width="240" height="240">
<path d="M0 0 C0.342 0.097 0.342 0.097 2.071 0.586 C18.735 5.341 33.663 12.855 47 24 C47.995 24.831 48.99 25.663 50.016 26.52 C61.933 36.804 70.777 49.084 78 63 C78.471 63.9 78.941 64.8 79.426 65.727 C82.074 71.153 83.96 76.729 85.688 82.5 C85.89 83.176 86.093 83.852 86.302 84.548 C89.347 95.195 90.391 105.43 90.375 116.5 C90.374 117.158 90.374 117.815 90.373 118.492 C90.248 151.55 76.816 181.134 53.536 204.53 C27.083 229.848 -5.925 237.855 -41.537 237.132 C-47.965 236.887 -53.827 235.865 -60 234 C-60.684 233.807 -61.367 233.613 -62.071 233.414 C-78.735 228.659 -93.663 221.145 -107 210 C-107.995 209.169 -108.99 208.337 -110.016 207.48 C-121.933 197.196 -130.777 184.916 -138 171 C-138.471 170.1 -138.941 169.2 -139.426 168.273 C-142.074 162.847 -143.96 157.271 -145.688 151.5 C-145.89 150.824 -146.093 150.148 -146.302 149.452 C-149.347 138.805 -150.391 128.57 -150.375 117.5 C-150.374 116.842 -150.374 116.185 -150.373 115.508 C-150.248 82.45 -136.816 52.866 -113.536 29.47 C-84.74 1.91 -38.726 -11.698 0 0 Z M-104.891 50.488 C-122.436 69.769 -130.517 95.161 -130 121 C-129.038 140.959 -122.422 161.214 -110 177 C-109.505 177.33 -109.505 177.33 -107 179 C-106.67 178.546 -106.67 178.546 -105 176.25 C-99.2 169.377 -90.436 167.894 -82.062 166 C-71.522 163.606 -62.552 160.77 -54 154 C-52.121 150.242 -52.521 146.095 -53 142 C-54.215 138.431 -55.913 135.195 -57.688 131.875 C-66.734 113.993 -72.249 94.652 -68.316 74.496 C-67.403 71.831 -66.353 69.469 -65 67 C-64.588 66.206 -64.175 65.412 -63.75 64.594 C-59.344 57.083 -52.636 52.079 -44.5 49.062 C-31.906 45.884 -17.73 46.898 -6.48 53.473 C1.213 58.87 6.156 66.87 8.527 75.93 C11.9 97.839 5.029 116.841 -4.121 136.396 C-4.482 137.178 -4.843 137.96 -5.215 138.766 C-5.543 139.465 -5.872 140.164 -6.211 140.884 C-7.591 144.584 -7.856 148.147 -7 152 C-2.325 158.375 5.124 161.336 12.5 163.5 C12.844 163.605 12.844 163.605 14.582 164.137 C18.719 165.385 22.877 166.484 27.071 167.52 C35.887 169.715 41.69 172.512 48 179 C56.802 167.797 63.155 155.769 67 142 C67.107 141.62 67.107 141.62 67.648 139.699 C73.56 114.895 69.002 87.646 56.094 65.819 C42.257 43.42 20.994 26.682 -4.615 20.148 C-41.933 11.508 -78.403 22.634 -104.891 50.488 Z " fill="#F9F9F9" transform="translate(150,3)"/>
<path d="M0 0 C0.66 0.33 1.32 0.66 2 1 C-2.75 6.75 -2.75 6.75 -5 9 C-5.66 8.67 -6.32 8.34 -7 8 C-5.905 5.81 -4.681 4.582 -2.938 2.875 C-2.39 2.336 -1.842 1.797 -1.277 1.242 C-0.856 0.832 -0.434 0.422 0 0 Z " fill="#B3B3B3" transform="translate(48,175)"/>
</svg>
